# xmcd
#
# Track frame offsets: 
#        183
#        13158
#        27408
#        41058
#        55308
#        69033
#        82833
#        95395
#
# Disc length: 1469 seconds
#
# Revision: 2
# Processed by: cddbd v1.5.1PL2 Copyright (c) Steve Scherf et al.
# Submitted via: ExactAudioCopy v0.90b4
#
DISCID=5a05bb08
DTITLE=John Lee Hooker - Mississippi River Delta Blues
DYEAR=1900
DGENRE=Blues
TTITLE0=Please Don't Go
TTITLE1=The Numbers
TTITLE2=Slim's Stomp
TTITLE3=Stomp Boogie
TTITLE4=House Rent Boogie
TTITLE5=I'm Gonna Kill That Woman
TTITLE6=Don't You Remember
TTITLE7=Wandering Blues
EXTD=
EXTT0=
EXTT1=
EXTT2=
EXTT3=
EXTT4=
EXTT5=
EXTT6=
EXTT7=
PLAYORDER=
